<svg data-uswds-responsive-tooltip-label="Mobile-lg" width="24" height="24" xmlns="http://www.w3.org/2000/svg">
  <g fill="none" fill-rule="evenodd">
    <path d="M24 0H0v24h24z"/>
    <path d="M8.5 1h8A2.5 2.5 0 0119 3.5v17a2.5 2.5 0 01-2.5 2.5h-8A2.5 2.5 0 016 20.5v-17A2.5 2.5 0 018.5 1zm4 21c.83 0 1.5-.67 1.5-1.5s-.67-1.5-1.5-1.5-1.5.67-1.5 1.5.67 1.5 1.5 1.5zM8 18h9V4H8v14z" fill="currentColor" fill-rule="nonzero"/>
    <text x="50%" y="50%" dominant-baseline="middle" text-anchor="middle" font-size="8" font-weight="bold" fill="currentColor">lg</text>
  </g>
</svg>
